<?xml version="1.0" encoding="UTF-8" standalone="no"?>
<!DOCTYPE svg PUBLIC "-//W3C//DTD SVG 1.1//EN"
 "http://www.w3.org/Graphics/SVG/1.1/DTD/svg11.dtd">
<!-- Generated by graphviz version 2.43.0 (0)
 -->
<!-- Title: G Pages: 1 -->
<svg width="632pt" height="382pt"
 viewBox="0.00 0.00 632.36 381.85" xmlns="http://www.w3.org/2000/svg" xmlns:xlink="http://www.w3.org/1999/xlink">
<g id="graph0" class="graph" transform="scale(1 1) rotate(0) translate(4 377.85)">
<title>G</title><style>.edge>path:hover{stroke-width:8}</style>
<polygon fill="white" stroke="transparent" points="-4,4 -4,-377.85 628.36,-377.85 628.36,4 -4,4"/>
<!-- archiver___main__ -->
<g id="node1" class="node">
<title>archiver___main__</title><style>.edge>path:hover{stroke-width:8}</style>
<ellipse fill="#818137" stroke="black" cx="316.5" cy="-21.21" rx="43.68" ry="21.43"/>
<text text-anchor="middle" x="316.5" y="-24.21" font-family="Helvetica,sans-Serif" font-size="10.00" fill="#ffffff">archiver.</text>
<text text-anchor="middle" x="316.5" y="-13.21" font-family="Helvetica,sans-Serif" font-size="10.00" fill="#ffffff">__main__</text>
</g>
<!-- archiver_auth -->
<g id="node2" class="node">
<title>archiver_auth</title><style>.edge>path:hover{stroke-width:8}</style>
<ellipse fill="#a8a838" stroke="black" cx="268.5" cy="-246.85" rx="47.19" ry="18"/>
<text text-anchor="middle" x="268.5" y="-244.35" font-family="Helvetica,sans-Serif" font-size="10.00" fill="#000000">archiver.auth</text>
</g>
<!-- archiver_auth&#45;&gt;archiver___main__ -->
<g id="edge2" class="edge">
<title>archiver_auth&#45;&gt;archiver___main__</title><style>.edge>path:hover{stroke-width:8}</style>
<path fill="none" stroke="black" d="M264.98,-228.82C260.01,-200.2 253.96,-141.59 277.5,-100.64"/>
</g>
<!-- archiver_db -->
<g id="node3" class="node">
<title>archiver_db</title><style>.edge>path:hover{stroke-width:8}</style>
<ellipse fill="#d9d926" stroke="black" cx="178.5" cy="-174.85" rx="41.59" ry="18"/>
<text text-anchor="middle" x="178.5" y="-172.35" font-family="Helvetica,sans-Serif" font-size="10.00" fill="#000000">archiver.db</text>
</g>
<!-- archiver_db&#45;&gt;archiver___main__ -->
<g id="edge3" class="edge">
<title>archiver_db&#45;&gt;archiver___main__</title><style>.edge>path:hover{stroke-width:8}</style>
<path fill="none" stroke="black" d="M206.22,-161.37C229.44,-149.34 261.31,-128.81 277.5,-100.64"/>
<path fill="none" stroke="black" d="M277.5,-98.64C286.39,-83.17 295.5,-65.45 302.68,-50.97"/>
<polygon fill="#d9d926" stroke="black" points="305.83,-52.49 307.09,-41.98 299.54,-49.41 305.83,-52.49"/>
</g>
<!-- archiver_gmail -->
<g id="node4" class="node">
<title>archiver_gmail</title><style>.edge>path:hover{stroke-width:8}</style>
<ellipse fill="#999933" stroke="black" cx="79.5" cy="-99.64" rx="50.75" ry="18"/>
<text text-anchor="middle" x="79.5" y="-97.14" font-family="Helvetica,sans-Serif" font-size="10.00" fill="#000000">archiver.gmail</text>
</g>
<!-- archiver_db&#45;&gt;archiver_gmail -->
<g id="edge4" class="edge">
<title>archiver_db&#45;&gt;archiver_gmail</title><style>.edge>path:hover{stroke-width:8}</style>
<path fill="none" stroke="black" d="M158.47,-159.04C144.26,-148.53 124.96,-134.26 109,-122.46"/>
<polygon fill="#d9d926" stroke="black" points="110.65,-119.32 100.53,-116.19 106.49,-124.95 110.65,-119.32"/>
</g>
<!-- archiver_mbox -->
<g id="node5" class="node">
<title>archiver_mbox</title><style>.edge>path:hover{stroke-width:8}</style>
<ellipse fill="#b8b83d" stroke="black" cx="198.5" cy="-99.64" rx="50.75" ry="18"/>
<text text-anchor="middle" x="198.5" y="-97.14" font-family="Helvetica,sans-Serif" font-size="10.00" fill="#000000">archiver.mbox</text>
</g>
<!-- archiver_db&#45;&gt;archiver_mbox -->
<g id="edge5" class="edge">
<title>archiver_db&#45;&gt;archiver_mbox</title><style>.edge>path:hover{stroke-width:8}</style>
<path fill="none" stroke="black" d="M183.14,-156.87C185.52,-148.16 188.48,-137.33 191.16,-127.52"/>
<polygon fill="#d9d926" stroke="black" points="194.56,-128.35 193.82,-117.78 187.81,-126.51 194.56,-128.35"/>
</g>
<!-- archiver_gmail&#45;&gt;archiver___main__ -->
<g id="edge6" class="edge">
<title>archiver_gmail&#45;&gt;archiver___main__</title><style>.edge>path:hover{stroke-width:8}</style>
<path fill="none" stroke="black" d="M114.39,-86.53C122.31,-83.83 130.68,-81 138.5,-78.43 183.24,-63.7 234.55,-47.58 270.55,-36.39"/>
<polygon fill="#999933" stroke="black" points="271.77,-39.68 280.28,-33.37 269.69,-32.99 271.77,-39.68"/>
</g>
<!-- archiver_mbox&#45;&gt;archiver___main__ -->
<g id="edge7" class="edge">
<title>archiver_mbox&#45;&gt;archiver___main__</title><style>.edge>path:hover{stroke-width:8}</style>
<path fill="none" stroke="black" d="M221.81,-83.54C239.17,-72.3 263.13,-56.78 282.6,-44.17"/>
<polygon fill="#b8b83d" stroke="black" points="284.7,-46.98 291.19,-38.6 280.9,-41.1 284.7,-46.98"/>
</g>
<!-- archiver_parse -->
<g id="node6" class="node">
<title>archiver_parse</title><style>.edge>path:hover{stroke-width:8}</style>
<ellipse fill="#b8b83d" stroke="black" cx="356.5" cy="-99.64" rx="50.75" ry="18"/>
<text text-anchor="middle" x="356.5" y="-97.14" font-family="Helvetica,sans-Serif" font-size="10.00" fill="#000000">archiver.parse</text>
</g>
<!-- archiver_parse&#45;&gt;archiver___main__ -->
<g id="edge8" class="edge">
<title>archiver_parse&#45;&gt;archiver___main__</title><style>.edge>path:hover{stroke-width:8}</style>
<path fill="none" stroke="black" d="M347.62,-81.68C342.94,-72.72 337.05,-61.48 331.67,-51.19"/>
<polygon fill="#b8b83d" stroke="black" points="334.65,-49.34 326.91,-42.1 328.45,-52.59 334.65,-49.34"/>
</g>
<!-- archiver_render -->
<g id="node7" class="node">
<title>archiver_render</title><style>.edge>path:hover{stroke-width:8}</style>
<ellipse fill="#c2c247" stroke="black" cx="466.5" cy="-99.64" rx="41.94" ry="21.43"/>
<text text-anchor="middle" x="466.5" y="-102.64" font-family="Helvetica,sans-Serif" font-size="10.00" fill="#000000">archiver.</text>
<text text-anchor="middle" x="466.5" y="-91.64" font-family="Helvetica,sans-Serif" font-size="10.00" fill="#000000">render</text>
</g>
<!-- archiver_render&#45;&gt;archiver___main__ -->
<g id="edge9" class="edge">
<title>archiver_render&#45;&gt;archiver___main__</title><style>.edge>path:hover{stroke-width:8}</style>
<path fill="none" stroke="black" d="M437.93,-84.08C414.39,-72.09 380.78,-54.96 354.89,-41.77"/>
<polygon fill="#c2c247" stroke="black" points="356.23,-38.53 345.73,-37.11 353.05,-44.76 356.23,-38.53"/>
</g>
<!-- archiver_state -->
<g id="node8" class="node">
<title>archiver_state</title><style>.edge>path:hover{stroke-width:8}</style>
<ellipse fill="#c2c247" stroke="black" cx="575.5" cy="-99.64" rx="48.72" ry="18"/>
<text text-anchor="middle" x="575.5" y="-97.14" font-family="Helvetica,sans-Serif" font-size="10.00" fill="#000000">archiver.state</text>
</g>
<!-- archiver_state&#45;&gt;archiver___main__ -->
<g id="edge10" class="edge">
<title>archiver_state&#45;&gt;archiver___main__</title><style>.edge>path:hover{stroke-width:8}</style>
<path fill="none" stroke="black" d="M541.88,-86.52C533.92,-83.77 525.44,-80.92 517.5,-78.43 465.44,-62.09 405.08,-45.52 364.19,-34.65"/>
<polygon fill="#c2c247" stroke="black" points="365.06,-31.26 354.49,-32.08 363.26,-38.02 365.06,-31.26"/>
</g>
<!-- archiver_util -->
<g id="node9" class="node">
<title>archiver_util</title><style>.edge>path:hover{stroke-width:8}</style>
<ellipse fill="#cece3b" stroke="black" cx="159.5" cy="-246.85" rx="43.62" ry="18"/>
<text text-anchor="middle" x="159.5" y="-244.35" font-family="Helvetica,sans-Serif" font-size="10.00" fill="#000000">archiver.util</text>
</g>
<!-- archiver_util&#45;&gt;archiver_db -->
<g id="edge11" class="edge">
<title>archiver_util&#45;&gt;archiver_db</title><style>.edge>path:hover{stroke-width:8}</style>
<path fill="none" stroke="black" d="M164.1,-228.91C166.21,-221.11 168.78,-211.67 171.15,-202.93"/>
<polygon fill="#cece3b" stroke="black" points="174.57,-203.7 173.81,-193.13 167.81,-201.86 174.57,-203.7"/>
</g>
<!-- archiver_util&#45;&gt;archiver_gmail -->
<g id="edge12" class="edge">
<title>archiver_util&#45;&gt;archiver_gmail</title><style>.edge>path:hover{stroke-width:8}</style>
<path fill="none" stroke="black" d="M132.64,-232.48C113.1,-220.68 89.68,-201.39 87.5,-175.85"/>
</g>
<!-- apiclient -->
<g id="node10" class="node">
<title>apiclient</title><style>.edge>path:hover{stroke-width:8}</style>
<polygon fill="#a44646" stroke="black" points="59,-264.85 56,-268.85 35,-268.85 32,-264.85 0,-264.85 0,-228.85 59,-228.85 59,-264.85"/>
<text text-anchor="middle" x="29.5" y="-244.35" font-family="Helvetica,sans-Serif" font-size="10.00" fill="#ffffff">apiclient</text>
</g>
<!-- apiclient&#45;&gt;archiver_gmail -->
<g id="edge1" class="edge">
<title>apiclient&#45;&gt;archiver_gmail</title><style>.edge>path:hover{stroke-width:8}</style>
<path fill="none" stroke="black" d="M56.29,-228.78C72.36,-216.2 89.36,-197.55 87.5,-175.85"/>
<path fill="none" stroke="black" d="M87.5,-173.85C86.2,-158.67 84.38,-141.76 82.8,-128.02"/>
<polygon fill="#a44646" stroke="black" points="86.24,-127.3 81.6,-117.78 79.29,-128.12 86.24,-127.3"/>
</g>
<!-- bs4 -->
<g id="node11" class="node">
<title>bs4</title><style>.edge>path:hover{stroke-width:8}</style>
<polygon fill="#53b653" stroke="black" points="505.5,-264.85 502.5,-268.85 481.5,-268.85 478.5,-264.85 451.5,-264.85 451.5,-228.85 505.5,-228.85 505.5,-264.85"/>
<text text-anchor="middle" x="478.5" y="-244.35" font-family="Helvetica,sans-Serif" font-size="10.00" fill="#000000">bs4</text>
</g>
<!-- bs4&#45;&gt;archiver_parse -->
<g id="edge13" class="edge">
<title>bs4&#45;&gt;archiver_parse</title><style>.edge>path:hover{stroke-width:8}</style>
<path fill="none" stroke="black" d="M463.63,-228.64C452.78,-215.16 438.61,-195.46 430.5,-175.85"/>
</g>
<!-- emailreplyparser -->
<g id="node12" class="node">
<title>emailreplyparser</title><style>.edge>path:hover{stroke-width:8}</style>
<polygon fill="#53b6b6" stroke="black" points="433.5,-264.85 430.5,-268.85 409.5,-268.85 406.5,-264.85 333.5,-264.85 333.5,-228.85 433.5,-228.85 433.5,-264.85"/>
<text text-anchor="middle" x="383.5" y="-244.35" font-family="Helvetica,sans-Serif" font-size="10.00" fill="#000000">emailreplyparser</text>
</g>
<!-- emailreplyparser&#45;&gt;archiver_parse -->
<g id="edge14" class="edge">
<title>emailreplyparser&#45;&gt;archiver_parse</title><style>.edge>path:hover{stroke-width:8}</style>
<path fill="none" stroke="black" d="M406.92,-228.85C422.46,-215.32 438.61,-195.47 430.5,-175.85"/>
<path fill="none" stroke="black" d="M430.5,-173.85C421.85,-152.95 403.97,-134.98 387.95,-122.08"/>
<polygon fill="#53b6b6" stroke="black" points="389.86,-119.13 379.8,-115.8 385.59,-124.68 389.86,-119.13"/>
</g>
<!-- googleapiclient -->
<g id="node13" class="node">
<title>googleapiclient</title><style>.edge>path:hover{stroke-width:8}</style>
<polygon fill="#e722e7" stroke="black" points="133.5,-373.85 130.5,-377.85 109.5,-377.85 106.5,-373.85 41.5,-373.85 41.5,-337.85 133.5,-337.85 133.5,-373.85"/>
<text text-anchor="middle" x="87.5" y="-353.35" font-family="Helvetica,sans-Serif" font-size="10.00" fill="#ffffff">googleapiclient</text>
</g>
<!-- googleapiclient&#45;&gt;archiver_auth -->
<g id="edge16" class="edge">
<title>googleapiclient&#45;&gt;archiver_auth</title><style>.edge>path:hover{stroke-width:8}</style>
<path fill="none" stroke="black" d="M87.5,-300.85C105.82,-246.02 157.06,-281.25 212.5,-264.85 216.02,-263.81 219.66,-262.73 223.32,-261.63"/>
<polygon fill="#e722e7" stroke="black" points="224.41,-264.96 232.97,-258.72 222.39,-258.25 224.41,-264.96"/>
</g>
<!-- googleapiclient&#45;&gt;archiver_gmail -->
<g id="edge17" class="edge">
<title>googleapiclient&#45;&gt;archiver_gmail</title><style>.edge>path:hover{stroke-width:8}</style>
<path fill="none" stroke="black" d="M87.5,-300.85C105.11,-248.16 92.24,-231.21 87.5,-175.85"/>
</g>
<!-- googleapiclient&#45;&gt;apiclient -->
<g id="edge15" class="edge">
<title>googleapiclient&#45;&gt;apiclient</title><style>.edge>path:hover{stroke-width:8}</style>
<path fill="none" stroke="black" d="M84.79,-337.7C83.77,-327.1 83.65,-313.37 87.5,-301.85"/>
<path fill="none" stroke="black" d="M87.5,-300.85C92.4,-286.18 81.57,-274.1 67.98,-265.2"/>
<polygon fill="#e722e7" stroke="black" points="69.68,-262.13 59.29,-260.07 66.12,-268.16 69.68,-262.13"/>
</g>
<!-- googleauthoauthlib -->
<g id="node14" class="node">
<title>googleauthoauthlib</title><style>.edge>path:hover{stroke-width:8}</style>
<polygon fill="#4747c2" stroke="black" points="324,-373.85 321,-377.85 300,-377.85 297,-373.85 213,-373.85 213,-337.85 324,-337.85 324,-373.85"/>
<text text-anchor="middle" x="268.5" y="-353.35" font-family="Helvetica,sans-Serif" font-size="10.00" fill="#ffffff">googleauthoauthlib</text>
</g>
<!-- googleauthoauthlib&#45;&gt;archiver_auth -->
<g id="edge18" class="edge">
<title>googleauthoauthlib&#45;&gt;archiver_auth</title><style>.edge>path:hover{stroke-width:8}</style>
<path fill="none" stroke="black" d="M268.5,-337.66C268.5,-320.81 268.5,-294.87 268.5,-275.19"/>
<polygon fill="#4747c2" stroke="black" points="272,-275 268.5,-265 265,-275 272,-275"/>
</g>
</g>
</svg>
