<?xml version="1.0" encoding="UTF-8" standalone="no"?>
<!DOCTYPE svg PUBLIC "-//W3C//DTD SVG 1.1//EN"
 "http://www.w3.org/Graphics/SVG/1.1/DTD/svg11.dtd">
<!-- Generated by graphviz version 2.43.0 (0)
 -->
<!-- Title: G Pages: 1 -->
<svg width="1252pt" height="539pt"
 viewBox="0.00 0.00 1251.65 538.71" xmlns="http://www.w3.org/2000/svg" xmlns:xlink="http://www.w3.org/1999/xlink">
<g id="graph0" class="graph" transform="scale(1 1) rotate(0) translate(4 534.71)">
<title>G</title><style>.edge>path:hover{stroke-width:8}</style>
<polygon fill="white" stroke="transparent" points="-4,4 -4,-534.71 1247.65,-534.71 1247.65,4 -4,4"/>
<!-- archiver___main__ -->
<g id="node1" class="node">
<title>archiver___main__</title><style>.edge>path:hover{stroke-width:8}</style>
<ellipse fill="#815f37" stroke="black" cx="385.93" cy="-21.21" rx="43.68" ry="21.43"/>
<text text-anchor="middle" x="385.93" y="-24.21" font-family="Helvetica,sans-Serif" font-size="10.00" fill="#ffffff">archiver.</text>
<text text-anchor="middle" x="385.93" y="-13.21" font-family="Helvetica,sans-Serif" font-size="10.00" fill="#ffffff">__main__</text>
</g>
<!-- archiver_auth -->
<g id="node2" class="node">
<title>archiver_auth</title><style>.edge>path:hover{stroke-width:8}</style>
<ellipse fill="#b4762d" stroke="black" cx="62.93" cy="-256.49" rx="47.19" ry="18"/>
<text text-anchor="middle" x="62.93" y="-253.99" font-family="Helvetica,sans-Serif" font-size="10.00" fill="#000000">archiver.auth</text>
</g>
<!-- archiver_email -->
<g id="node5" class="node">
<title>archiver_email</title><style>.edge>path:hover{stroke-width:8}</style>
<ellipse fill="#916530" stroke="black" cx="236.93" cy="-99.64" rx="50.75" ry="18"/>
<text text-anchor="middle" x="236.93" y="-97.14" font-family="Helvetica,sans-Serif" font-size="10.00" fill="#ffffff">archiver.email</text>
</g>
<!-- archiver_auth&#45;&gt;archiver_email -->
<g id="edge2" class="edge">
<title>archiver_auth&#45;&gt;archiver_email</title><style>.edge>path:hover{stroke-width:8}</style>
<path fill="none" stroke="black" d="M87.27,-240.81C104.14,-230.16 126.75,-214.93 144.93,-199.28 159.51,-186.74 193.25,-149.69 215.56,-124.75"/>
<polygon fill="#b4762d" stroke="black" points="218.32,-126.91 222.37,-117.12 213.1,-122.25 218.32,-126.91"/>
</g>
<!-- archiver_mbox -->
<g id="node11" class="node">
<title>archiver_mbox</title><style>.edge>path:hover{stroke-width:8}</style>
<ellipse fill="#b4762d" stroke="black" cx="84.93" cy="-178.07" rx="50.75" ry="18"/>
<text text-anchor="middle" x="84.93" y="-175.57" font-family="Helvetica,sans-Serif" font-size="10.00" fill="#000000">archiver.mbox</text>
</g>
<!-- archiver_auth&#45;&gt;archiver_mbox -->
<g id="edge3" class="edge">
<title>archiver_auth&#45;&gt;archiver_mbox</title><style>.edge>path:hover{stroke-width:8}</style>
<path fill="none" stroke="black" d="M67.82,-238.53C70.56,-229 74.05,-216.88 77.16,-206.08"/>
<polygon fill="#b4762d" stroke="black" points="80.59,-206.82 79.99,-196.24 73.86,-204.89 80.59,-206.82"/>
</g>
<!-- archiver_books -->
<g id="node3" class="node">
<title>archiver_books</title><style>.edge>path:hover{stroke-width:8}</style>
<ellipse fill="#88643a" stroke="black" cx="937.93" cy="-256.49" rx="51.61" ry="18"/>
<text text-anchor="middle" x="937.93" y="-253.99" font-family="Helvetica,sans-Serif" font-size="10.00" fill="#ffffff">archiver.books</text>
</g>
<!-- archiver_db -->
<g id="node4" class="node">
<title>archiver_db</title><style>.edge>path:hover{stroke-width:8}</style>
<ellipse fill="#d98826" stroke="black" cx="169.93" cy="-256.49" rx="41.59" ry="18"/>
<text text-anchor="middle" x="169.93" y="-253.99" font-family="Helvetica,sans-Serif" font-size="10.00" fill="#000000">archiver.db</text>
</g>
<!-- archiver_db&#45;&gt;archiver_email -->
<g id="edge4" class="edge">
<title>archiver_db&#45;&gt;archiver_email</title><style>.edge>path:hover{stroke-width:8}</style>
<path fill="none" stroke="black" d="M173.36,-238.34C177.53,-221.42 186.06,-195.73 201.93,-179.07"/>
<path fill="none" stroke="black" d="M201.93,-177.07C215.15,-163.2 224.01,-143.46 229.51,-127.52"/>
<polygon fill="#d98826" stroke="black" points="232.95,-128.28 232.66,-117.69 226.28,-126.15 232.95,-128.28"/>
</g>
<!-- archiver_google_email -->
<g id="node8" class="node">
<title>archiver_google_email</title><style>.edge>path:hover{stroke-width:8}</style>
<ellipse fill="#735026" stroke="black" cx="503.93" cy="-99.64" rx="58.88" ry="21.43"/>
<text text-anchor="middle" x="503.93" y="-102.64" font-family="Helvetica,sans-Serif" font-size="10.00" fill="#ffffff">archiver.</text>
<text text-anchor="middle" x="503.93" y="-91.64" font-family="Helvetica,sans-Serif" font-size="10.00" fill="#ffffff">google_email</text>
</g>
<!-- archiver_db&#45;&gt;archiver_google_email -->
<g id="edge5" class="edge">
<title>archiver_db&#45;&gt;archiver_google_email</title><style>.edge>path:hover{stroke-width:8}</style>
<path fill="none" stroke="black" d="M201.93,-177.07C276.02,-99.32 332.4,-145.44 436.93,-120.85 441.64,-119.75 446.5,-118.5 451.35,-117.17"/>
<polygon fill="#d98826" stroke="black" points="452.58,-120.46 461.26,-114.38 450.68,-113.72 452.58,-120.46"/>
</g>
<!-- archiver_db&#45;&gt;archiver_mbox -->
<g id="edge6" class="edge">
<title>archiver_db&#45;&gt;archiver_mbox</title><style>.edge>path:hover{stroke-width:8}</style>
<path fill="none" stroke="black" d="M152.73,-240.03C140.57,-229.09 124.05,-214.24 110.37,-201.94"/>
<polygon fill="#d98826" stroke="black" points="112.47,-199.12 102.69,-195.04 107.79,-204.32 112.47,-199.12"/>
</g>
<!-- archiver_email&#45;&gt;archiver___main__ -->
<g id="edge7" class="edge">
<title>archiver_email&#45;&gt;archiver___main__</title><style>.edge>path:hover{stroke-width:8}</style>
<path fill="none" stroke="black" d="M264.61,-84.44C288,-72.45 321.73,-55.14 347.7,-41.83"/>
<polygon fill="#916530" stroke="black" points="349.58,-44.79 356.88,-37.12 346.38,-38.57 349.58,-44.79"/>
</g>
<!-- archiver_email_parse -->
<g id="node6" class="node">
<title>archiver_email_parse</title><style>.edge>path:hover{stroke-width:8}</style>
<ellipse fill="#d08224" stroke="black" cx="465.93" cy="-178.07" rx="54.39" ry="21.43"/>
<text text-anchor="middle" x="465.93" y="-181.07" font-family="Helvetica,sans-Serif" font-size="10.00" fill="#000000">archiver.</text>
<text text-anchor="middle" x="465.93" y="-170.07" font-family="Helvetica,sans-Serif" font-size="10.00" fill="#000000">email_parse</text>
</g>
<!-- archiver_email_parse&#45;&gt;archiver_email -->
<g id="edge8" class="edge">
<title>archiver_email_parse&#45;&gt;archiver_email</title><style>.edge>path:hover{stroke-width:8}</style>
<path fill="none" stroke="black" d="M425.78,-163.67C385.64,-150.27 324.03,-129.71 282.18,-115.74"/>
<polygon fill="#d08224" stroke="black" points="283.11,-112.36 272.52,-112.52 280.9,-119 283.11,-112.36"/>
</g>
<!-- archiver_email_parse&#45;&gt;archiver_google_email -->
<g id="edge9" class="edge">
<title>archiver_email_parse&#45;&gt;archiver_google_email</title><style>.edge>path:hover{stroke-width:8}</style>
<path fill="none" stroke="black" d="M475.92,-156.99C480.06,-148.65 484.95,-138.81 489.48,-129.71"/>
<polygon fill="#d08224" stroke="black" points="492.7,-131.1 494.02,-120.59 486.43,-127.98 492.7,-131.1"/>
</g>
<!-- archiver_tokenize -->
<g id="node13" class="node">
<title>archiver_tokenize</title><style>.edge>path:hover{stroke-width:8}</style>
<ellipse fill="#c08540" stroke="black" cx="385.93" cy="-99.64" rx="41.94" ry="21.43"/>
<text text-anchor="middle" x="385.93" y="-102.64" font-family="Helvetica,sans-Serif" font-size="10.00" fill="#000000">archiver.</text>
<text text-anchor="middle" x="385.93" y="-91.64" font-family="Helvetica,sans-Serif" font-size="10.00" fill="#000000">tokenize</text>
</g>
<!-- archiver_email_parse&#45;&gt;archiver_tokenize -->
<g id="edge10" class="edge">
<title>archiver_email_parse&#45;&gt;archiver_tokenize</title><style>.edge>path:hover{stroke-width:8}</style>
<path fill="none" stroke="black" d="M446.16,-158.17C435.93,-148.41 423.31,-136.35 412.27,-125.8"/>
<polygon fill="#d08224" stroke="black" points="414.58,-123.16 404.93,-118.79 409.74,-128.23 414.58,-123.16"/>
</g>
<!-- archiver_google_calendar -->
<g id="node7" class="node">
<title>archiver_google_calendar</title><style>.edge>path:hover{stroke-width:8}</style>
<ellipse fill="#a87538" stroke="black" cx="374.93" cy="-256.49" rx="68.68" ry="21.43"/>
<text text-anchor="middle" x="374.93" y="-259.49" font-family="Helvetica,sans-Serif" font-size="10.00" fill="#ffffff">archiver.</text>
<text text-anchor="middle" x="374.93" y="-248.49" font-family="Helvetica,sans-Serif" font-size="10.00" fill="#ffffff">google_calendar</text>
</g>
<!-- archiver_google_calendar&#45;&gt;archiver___main__ -->
<g id="edge11" class="edge">
<title>archiver_google_calendar&#45;&gt;archiver___main__</title><style>.edge>path:hover{stroke-width:8}</style>
<path fill="none" stroke="black" d="M363.01,-235.55C344.67,-202.17 313.77,-133.26 334.93,-78.43 339.49,-66.61 347.82,-55.75 356.43,-46.78"/>
<polygon fill="#a87538" stroke="black" points="358.96,-49.21 363.67,-39.72 354.07,-44.2 358.96,-49.21"/>
</g>
<!-- archiver_google_email&#45;&gt;archiver___main__ -->
<g id="edge12" class="edge">
<title>archiver_google_email&#45;&gt;archiver___main__</title><style>.edge>path:hover{stroke-width:8}</style>
<path fill="none" stroke="black" d="M476.27,-80.72C459.41,-69.8 437.74,-55.77 419.85,-44.18"/>
<polygon fill="#735026" stroke="black" points="421.71,-41.21 411.41,-38.71 417.9,-47.09 421.71,-41.21"/>
</g>
<!-- archiver_index -->
<g id="node9" class="node">
<title>archiver_index</title><style>.edge>path:hover{stroke-width:8}</style>
<ellipse fill="#a87538" stroke="black" cx="762.93" cy="-99.64" rx="50.75" ry="18"/>
<text text-anchor="middle" x="762.93" y="-97.14" font-family="Helvetica,sans-Serif" font-size="10.00" fill="#ffffff">archiver.index</text>
</g>
<!-- archiver_index&#45;&gt;archiver___main__ -->
<g id="edge13" class="edge">
<title>archiver_index&#45;&gt;archiver___main__</title><style>.edge>path:hover{stroke-width:8}</style>
<path fill="none" stroke="black" d="M720.05,-89.95C649.74,-75.69 510.29,-47.42 435.72,-32.31"/>
<polygon fill="#a87538" stroke="black" points="436.13,-28.82 425.64,-30.26 434.74,-35.68 436.13,-28.82"/>
</g>
<!-- archiver_keep -->
<g id="node10" class="node">
<title>archiver_keep</title><style>.edge>path:hover{stroke-width:8}</style>
<ellipse fill="#88643a" stroke="black" cx="1055.93" cy="-256.49" rx="48.04" ry="18"/>
<text text-anchor="middle" x="1055.93" y="-253.99" font-family="Helvetica,sans-Serif" font-size="10.00" fill="#ffffff">archiver.keep</text>
</g>
<!-- archiver_mbox&#45;&gt;archiver___main__ -->
<g id="edge14" class="edge">
<title>archiver_mbox&#45;&gt;archiver___main__</title><style>.edge>path:hover{stroke-width:8}</style>
<path fill="none" stroke="black" d="M95.92,-160.41C111.38,-138.33 141.62,-99.67 176.93,-78.43 225.33,-49.32 288.93,-35.02 333.21,-28.16"/>
<polygon fill="#b4762d" stroke="black" points="333.81,-31.61 343.19,-26.69 332.79,-24.69 333.81,-31.61"/>
</g>
<!-- archiver_mbox&#45;&gt;archiver_email -->
<g id="edge15" class="edge">
<title>archiver_mbox&#45;&gt;archiver_email</title><style>.edge>path:hover{stroke-width:8}</style>
<path fill="none" stroke="black" d="M113.17,-162.87C137.59,-150.59 173.08,-132.75 199.8,-119.31"/>
<polygon fill="#b4762d" stroke="black" points="201.49,-122.38 208.85,-114.76 198.35,-116.12 201.49,-122.38"/>
</g>
<!-- archiver_photos -->
<g id="node12" class="node">
<title>archiver_photos</title><style>.edge>path:hover{stroke-width:8}</style>
<ellipse fill="#88643a" stroke="black" cx="1201.93" cy="-256.49" rx="41.94" ry="21.43"/>
<text text-anchor="middle" x="1201.93" y="-259.49" font-family="Helvetica,sans-Serif" font-size="10.00" fill="#ffffff">archiver.</text>
<text text-anchor="middle" x="1201.93" y="-248.49" font-family="Helvetica,sans-Serif" font-size="10.00" fill="#ffffff">photos</text>
</g>
<!-- archiver_tokenize&#45;&gt;archiver___main__ -->
<g id="edge16" class="edge">
<title>archiver_tokenize&#45;&gt;archiver___main__</title><style>.edge>path:hover{stroke-width:8}</style>
<path fill="none" stroke="black" d="M385.93,-78.16C385.93,-70.3 385.93,-61.16 385.93,-52.57"/>
<polygon fill="#c08540" stroke="black" points="389.43,-52.49 385.93,-42.49 382.43,-52.49 389.43,-52.49"/>
</g>
<!-- archiver_unique -->
<g id="node14" class="node">
<title>archiver_unique</title><style>.edge>path:hover{stroke-width:8}</style>
<ellipse fill="#ce8b3b" stroke="black" cx="927.93" cy="-178.07" rx="41.94" ry="21.43"/>
<text text-anchor="middle" x="927.93" y="-181.07" font-family="Helvetica,sans-Serif" font-size="10.00" fill="#000000">archiver.</text>
<text text-anchor="middle" x="927.93" y="-170.07" font-family="Helvetica,sans-Serif" font-size="10.00" fill="#000000">unique</text>
</g>
<!-- archiver_unique&#45;&gt;archiver___main__ -->
<g id="edge17" class="edge">
<title>archiver_unique&#45;&gt;archiver___main__</title><style>.edge>path:hover{stroke-width:8}</style>
<path fill="none" stroke="black" d="M913.69,-157.7C895.47,-134.56 861.61,-96.68 822.93,-78.43 756.06,-46.86 540.9,-30.91 439.61,-24.99"/>
<polygon fill="#ce8b3b" stroke="black" points="439.77,-21.5 429.59,-24.42 439.37,-28.48 439.77,-21.5"/>
</g>
<!-- archiver_unique&#45;&gt;archiver_index -->
<g id="edge18" class="edge">
<title>archiver_unique&#45;&gt;archiver_index</title><style>.edge>path:hover{stroke-width:8}</style>
<path fill="none" stroke="black" d="M898.05,-163.23C871.07,-150.73 831.2,-132.26 801.76,-118.62"/>
<polygon fill="#ce8b3b" stroke="black" points="803.14,-115.4 792.59,-114.38 800.2,-121.76 803.14,-115.4"/>
</g>
<!-- archiver_util -->
<g id="node15" class="node">
<title>archiver_util</title><style>.edge>path:hover{stroke-width:8}</style>
<ellipse fill="#db8c2f" stroke="black" cx="189.93" cy="-331.71" rx="43.62" ry="18"/>
<text text-anchor="middle" x="189.93" y="-329.21" font-family="Helvetica,sans-Serif" font-size="10.00" fill="#000000">archiver.util</text>
</g>
<!-- archiver_util&#45;&gt;archiver_db -->
<g id="edge19" class="edge">
<title>archiver_util&#45;&gt;archiver_db</title><style>.edge>path:hover{stroke-width:8}</style>
<path fill="none" stroke="black" d="M185.3,-313.73C182.91,-305.01 179.96,-294.19 177.28,-284.37"/>
<polygon fill="#db8c2f" stroke="black" points="180.63,-283.36 174.62,-274.63 173.88,-285.2 180.63,-283.36"/>
</g>
<!-- archiver_util&#45;&gt;archiver_email -->
<g id="edge20" class="edge">
<title>archiver_util&#45;&gt;archiver_email</title><style>.edge>path:hover{stroke-width:8}</style>
<path fill="none" stroke="black" d="M201.53,-314.25C208.14,-304.14 216.06,-290.68 220.93,-277.71 236.65,-235.92 217.95,-217.92 239.93,-179.07"/>
<path fill="none" stroke="black" d="M239.93,-177.07C249.85,-162.86 248.88,-143.29 245.55,-127.51"/>
<polygon fill="#db8c2f" stroke="black" points="248.93,-126.63 243.1,-117.78 242.14,-128.34 248.93,-126.63"/>
</g>
<!-- archiver_util&#45;&gt;archiver_google_email -->
<g id="edge21" class="edge">
<title>archiver_util&#45;&gt;archiver_google_email</title><style>.edge>path:hover{stroke-width:8}</style>
<path fill="none" stroke="black" d="M239.93,-177.07C292.04,-102.4 349.57,-146.49 436.93,-120.85 441.32,-119.57 445.85,-118.22 450.41,-116.87"/>
<polygon fill="#db8c2f" stroke="black" points="451.78,-120.11 460.35,-113.89 449.77,-113.4 451.78,-120.11"/>
</g>
<!-- apiclient -->
<g id="node16" class="node">
<title>apiclient</title><style>.edge>path:hover{stroke-width:8}</style>
<polygon fill="#a44646" stroke="black" points="635.43,-274.49 632.43,-278.49 611.43,-278.49 608.43,-274.49 576.43,-274.49 576.43,-238.49 635.43,-238.49 635.43,-274.49"/>
<text text-anchor="middle" x="605.93" y="-253.99" font-family="Helvetica,sans-Serif" font-size="10.00" fill="#ffffff">apiclient</text>
</g>
<!-- apiclient&#45;&gt;archiver_google_email -->
<g id="edge1" class="edge">
<title>apiclient&#45;&gt;archiver_google_email</title><style>.edge>path:hover{stroke-width:8}</style>
<path fill="none" stroke="black" d="M589.78,-238.25C576.8,-223.54 558.96,-201.3 547.93,-179.07"/>
</g>
<!-- bs4 -->
<g id="node17" class="node">
<title>bs4</title><style>.edge>path:hover{stroke-width:8}</style>
<polygon fill="#b7c247" stroke="black" points="500.93,-349.71 497.93,-353.71 476.93,-353.71 473.93,-349.71 446.93,-349.71 446.93,-313.71 500.93,-313.71 500.93,-349.71"/>
<text text-anchor="middle" x="473.93" y="-329.21" font-family="Helvetica,sans-Serif" font-size="10.00" fill="#000000">bs4</text>
</g>
<!-- bs4&#45;&gt;archiver_email_parse -->
<g id="edge22" class="edge">
<title>bs4&#45;&gt;archiver_email_parse</title><style>.edge>path:hover{stroke-width:8}</style>
<path fill="none" stroke="black" d="M485.48,-313.57C494.32,-299.28 505.69,-278.02 509.93,-257.49"/>
<path fill="none" stroke="black" d="M509.93,-255.49C513.67,-237.45 504.16,-219.47 493.04,-205.49"/>
<polygon fill="#b7c247" stroke="black" points="495.57,-203.06 486.4,-197.75 490.26,-207.62 495.57,-203.06"/>
</g>
<!-- bs4&#45;&gt;archiver_google_email -->
<g id="edge23" class="edge">
<title>bs4&#45;&gt;archiver_google_email</title><style>.edge>path:hover{stroke-width:8}</style>
<path fill="none" stroke="black" d="M509.93,-255.49C517.62,-218.35 564.78,-213.05 547.93,-179.07"/>
<path fill="none" stroke="black" d="M547.93,-177.07C539.96,-160.97 530.05,-143.58 521.66,-129.46"/>
<polygon fill="#b7c247" stroke="black" points="524.55,-127.47 516.4,-120.7 518.55,-131.08 524.55,-127.47"/>
</g>
<!-- emailreplyparser -->
<g id="node18" class="node">
<title>emailreplyparser</title><style>.edge>path:hover{stroke-width:8}</style>
<polygon fill="#77b653" stroke="black" points="428.93,-349.71 425.93,-353.71 404.93,-353.71 401.93,-349.71 328.93,-349.71 328.93,-313.71 428.93,-313.71 428.93,-349.71"/>
<text text-anchor="middle" x="378.93" y="-329.21" font-family="Helvetica,sans-Serif" font-size="10.00" fill="#000000">emailreplyparser</text>
</g>
<!-- emailreplyparser&#45;&gt;archiver_email_parse -->
<g id="edge24" class="edge">
<title>emailreplyparser&#45;&gt;archiver_email_parse</title><style>.edge>path:hover{stroke-width:8}</style>
<path fill="none" stroke="black" d="M414.2,-313.67C428.53,-304.93 443.83,-292.88 452.93,-277.71 465.19,-257.27 468.01,-230.21 468.01,-209.61"/>
<polygon fill="#77b653" stroke="black" points="471.5,-209.41 467.78,-199.49 464.51,-209.57 471.5,-209.41"/>
</g>
<!-- googleapiclient -->
<g id="node19" class="node">
<title>googleapiclient</title><style>.edge>path:hover{stroke-width:8}</style>
<polygon fill="#10f9ba" stroke="black" points="947.93,-421.71 944.93,-425.71 923.93,-425.71 920.93,-421.71 855.93,-421.71 855.93,-385.71 947.93,-385.71 947.93,-421.71"/>
<text text-anchor="middle" x="901.93" y="-401.21" font-family="Helvetica,sans-Serif" font-size="10.00" fill="#000000">googleapiclient</text>
</g>
<!-- googleapiclient&#45;&gt;archiver_auth -->
<g id="edge26" class="edge">
<title>googleapiclient&#45;&gt;archiver_auth</title><style>.edge>path:hover{stroke-width:8}</style>
<path fill="none" stroke="black" d="M62.93,-330.71C48.66,-321 49.53,-300.99 53.49,-284.34"/>
<polygon fill="#10f9ba" stroke="black" points="56.92,-285.1 56.25,-274.52 50.18,-283.2 56.92,-285.1"/>
</g>
<!-- googleapiclient&#45;&gt;archiver_books -->
<g id="edge27" class="edge">
<title>googleapiclient&#45;&gt;archiver_books</title><style>.edge>path:hover{stroke-width:8}</style>
<path fill="none" stroke="black" d="M916.66,-385.53C926.66,-372.07 938.07,-352.38 937.93,-332.71"/>
<path fill="none" stroke="black" d="M937.93,-330.71C937.83,-315.56 937.82,-298.65 937.84,-284.91"/>
<polygon fill="#10f9ba" stroke="black" points="941.34,-284.66 937.87,-274.65 934.34,-284.64 941.34,-284.66"/>
</g>
<!-- googleapiclient&#45;&gt;archiver_email -->
<g id="edge28" class="edge">
<title>googleapiclient&#45;&gt;archiver_email</title><style>.edge>path:hover{stroke-width:8}</style>
<path fill="none" stroke="black" d="M855.84,-402.21C735.77,-400.35 415.99,-391.5 319.93,-349.71 309.54,-345.19 306.98,-342.29 300.93,-332.71"/>
<path fill="none" stroke="black" d="M300.93,-330.71C258.26,-262.99 275.97,-233.8 253.93,-156.85 251.2,-147.31 248.09,-136.89 245.28,-127.65"/>
<polygon fill="#10f9ba" stroke="black" points="248.55,-126.36 242.27,-117.82 241.85,-128.41 248.55,-126.36"/>
</g>
<!-- googleapiclient&#45;&gt;archiver_google_calendar -->
<g id="edge29" class="edge">
<title>googleapiclient&#45;&gt;archiver_google_calendar</title><style>.edge>path:hover{stroke-width:8}</style>
<path fill="none" stroke="black" d="M300.93,-330.71C288.6,-311.13 307.1,-292.83 328.69,-279.42"/>
<polygon fill="#10f9ba" stroke="black" points="330.51,-282.41 337.38,-274.35 326.98,-276.36 330.51,-282.41"/>
</g>
<!-- googleapiclient&#45;&gt;archiver_google_email -->
<g id="edge30" class="edge">
<title>googleapiclient&#45;&gt;archiver_google_email</title><style>.edge>path:hover{stroke-width:8}</style>
<path fill="none" stroke="black" d="M855.75,-400.51C771.79,-395.4 599.77,-379.34 566.93,-332.71"/>
<path fill="none" stroke="black" d="M566.93,-330.71C547.58,-303.22 547.49,-291.11 547.93,-257.49"/>
</g>
<!-- googleapiclient&#45;&gt;archiver_keep -->
<g id="edge31" class="edge">
<title>googleapiclient&#45;&gt;archiver_keep</title><style>.edge>path:hover{stroke-width:8}</style>
<path fill="none" stroke="black" d="M923.57,-385.64C939.41,-372.38 960.72,-352.91 975.93,-332.71"/>
<path fill="none" stroke="black" d="M975.93,-330.71C990.5,-311.37 1010.61,-292.98 1027.03,-279.48"/>
<polygon fill="#10f9ba" stroke="black" points="1029.63,-281.87 1035.23,-272.88 1025.25,-276.42 1029.63,-281.87"/>
</g>
<!-- googleapiclient&#45;&gt;archiver_mbox -->
<g id="edge32" class="edge">
<title>googleapiclient&#45;&gt;archiver_mbox</title><style>.edge>path:hover{stroke-width:8}</style>
<path fill="none" stroke="black" d="M855.75,-401.48C689.61,-396.72 128.74,-377.43 62.93,-332.71"/>
<path fill="none" stroke="black" d="M62.93,-330.71C22.26,-303.06 -15.48,-279.05 6.93,-235.28 15.12,-219.28 30.22,-206.8 44.96,-197.7"/>
<polygon fill="#10f9ba" stroke="black" points="47.12,-200.5 54.03,-192.48 43.62,-194.44 47.12,-200.5"/>
</g>
<!-- googleapiclient&#45;&gt;archiver_photos -->
<g id="edge33" class="edge">
<title>googleapiclient&#45;&gt;archiver_photos</title><style>.edge>path:hover{stroke-width:8}</style>
<path fill="none" stroke="black" d="M947.95,-389.06C993.77,-375.33 1058.85,-355.4 1069.93,-349.71 1093.65,-337.52 1096.18,-329.13 1117.93,-313.71 1134.33,-302.08 1152.87,-289.61 1168.35,-279.37"/>
<polygon fill="#10f9ba" stroke="black" points="1170.64,-282.05 1177.07,-273.63 1166.79,-276.21 1170.64,-282.05"/>
</g>
<!-- googleapiclient&#45;&gt;apiclient -->
<g id="edge25" class="edge">
<title>googleapiclient&#45;&gt;apiclient</title><style>.edge>path:hover{stroke-width:8}</style>
<path fill="none" stroke="black" d="M566.93,-330.71C556.23,-315.5 566.24,-297.02 578.79,-282.42"/>
<polygon fill="#10f9ba" stroke="black" points="581.67,-284.47 585.91,-274.76 576.54,-279.7 581.67,-284.47"/>
</g>
<!-- googleauthoauthlib -->
<g id="node20" class="node">
<title>googleauthoauthlib</title><style>.edge>path:hover{stroke-width:8}</style>
<polygon fill="#2fdb4e" stroke="black" points="318.43,-421.71 315.43,-425.71 294.43,-425.71 291.43,-421.71 207.43,-421.71 207.43,-385.71 318.43,-385.71 318.43,-421.71"/>
<text text-anchor="middle" x="262.93" y="-401.21" font-family="Helvetica,sans-Serif" font-size="10.00" fill="#000000">googleauthoauthlib</text>
</g>
<!-- googleauthoauthlib&#45;&gt;archiver_auth -->
<g id="edge34" class="edge">
<title>googleauthoauthlib&#45;&gt;archiver_auth</title><style>.edge>path:hover{stroke-width:8}</style>
<path fill="none" stroke="black" d="M207.38,-396.67C150.66,-389.22 68.28,-374.42 48.93,-349.71 34.36,-331.08 40.98,-303.68 49.35,-283.59"/>
<polygon fill="#2fdb4e" stroke="black" points="52.58,-284.93 53.51,-274.38 46.2,-282.05 52.58,-284.93"/>
</g>
<!-- googleauthoauthlib&#45;&gt;archiver_google_calendar -->
<g id="edge35" class="edge">
<title>googleauthoauthlib&#45;&gt;archiver_google_calendar</title><style>.edge>path:hover{stroke-width:8}</style>
<path fill="none" stroke="black" d="M263.92,-385.38C265.8,-366.19 271.22,-335.13 286.93,-313.71 297.32,-299.54 312.45,-288.05 327.25,-279.23"/>
<polygon fill="#2fdb4e" stroke="black" points="329.38,-282.05 336.37,-274.09 325.94,-275.95 329.38,-282.05"/>
</g>
<!-- googleauthoauthlib&#45;&gt;archiver_google_email -->
<g id="edge36" class="edge">
<title>googleauthoauthlib&#45;&gt;archiver_google_email</title><style>.edge>path:hover{stroke-width:8}</style>
<path fill="none" stroke="black" d="M318.7,-396.8C382.37,-389.04 481.4,-373.53 509.93,-349.71 543.96,-321.3 547.93,-301.82 547.93,-257.49"/>
<path fill="none" stroke="black" d="M547.93,-255.49C548.39,-221.53 563.02,-209.5 547.93,-179.07"/>
</g>
<!-- httplib2 -->
<g id="node21" class="node">
<title>httplib2</title><style>.edge>path:hover{stroke-width:8}</style>
<polygon fill="#0cb4f3" stroke="black" points="1002.93,-530.71 999.93,-534.71 978.93,-534.71 975.93,-530.71 948.93,-530.71 948.93,-494.71 1002.93,-494.71 1002.93,-530.71"/>
<text text-anchor="middle" x="975.93" y="-510.21" font-family="Helvetica,sans-Serif" font-size="10.00" fill="#000000">httplib2</text>
</g>
<!-- httplib2&#45;&gt;archiver_books -->
<g id="edge37" class="edge">
<title>httplib2&#45;&gt;archiver_books</title><style>.edge>path:hover{stroke-width:8}</style>
<path fill="none" stroke="black" d="M975.93,-402.71C958.69,-371.79 938.18,-368.1 937.93,-332.71"/>
</g>
<!-- httplib2&#45;&gt;archiver_google_email -->
<g id="edge38" class="edge">
<title>httplib2&#45;&gt;archiver_google_email</title><style>.edge>path:hover{stroke-width:8}</style>
<path fill="none" stroke="black" d="M975.93,-457.71C980.67,-434.63 987.41,-425.28 975.93,-404.71"/>
<path fill="none" stroke="black" d="M975.93,-402.71C970.41,-392.81 967.23,-390.43 956.93,-385.71 845.3,-334.47 772.88,-433.35 682.93,-349.71 652.29,-321.21 689.7,-290.46 663.93,-257.49"/>
<path fill="none" stroke="black" d="M663.93,-255.49C656.01,-246.04 654.59,-242.94 644.93,-235.28 605.9,-204.31 570.06,-223.71 547.93,-179.07"/>
</g>
<!-- httplib2&#45;&gt;archiver_keep -->
<g id="edge39" class="edge">
<title>httplib2&#45;&gt;archiver_keep</title><style>.edge>path:hover{stroke-width:8}</style>
<path fill="none" stroke="black" d="M975.93,-402.71C960.78,-375.54 957.22,-357.56 975.93,-332.71"/>
</g>
<!-- httplib2&#45;&gt;archiver_photos -->
<g id="edge40" class="edge">
<title>httplib2&#45;&gt;archiver_photos</title><style>.edge>path:hover{stroke-width:8}</style>
<path fill="none" stroke="black" d="M975.93,-457.71C988.25,-399.91 1057.01,-457.63 1103.93,-421.71 1149.47,-386.84 1178.18,-324.25 1192.03,-287.23"/>
<polygon fill="#0cb4f3" stroke="black" points="1195.44,-288.1 1195.55,-277.51 1188.86,-285.72 1195.44,-288.1"/>
</g>
<!-- httplib2&#45;&gt;googleapiclient -->
<g id="edge41" class="edge">
<title>httplib2&#45;&gt;googleapiclient</title><style>.edge>path:hover{stroke-width:8}</style>
<path fill="none" stroke="black" d="M974.12,-494.33C973.48,-483.89 973.44,-470.4 975.93,-458.71"/>
<path fill="none" stroke="black" d="M975.93,-457.71C979.04,-443.13 969.81,-432.09 956.91,-423.98"/>
<polygon fill="#0cb4f3" stroke="black" points="958.44,-420.82 948,-419.05 955.06,-426.95 958.44,-420.82"/>
</g>
<!-- numpy -->
<g id="node22" class="node">
<title>numpy</title><style>.edge>path:hover{stroke-width:8}</style>
<polygon fill="#2646d9" stroke="black" points="745.93,-349.71 742.93,-353.71 721.93,-353.71 718.93,-349.71 691.93,-349.71 691.93,-313.71 745.93,-313.71 745.93,-349.71"/>
<text text-anchor="middle" x="718.93" y="-329.21" font-family="Helvetica,sans-Serif" font-size="10.00" fill="#ffffff">numpy</text>
</g>
<!-- numpy&#45;&gt;archiver_google_email -->
<g id="edge42" class="edge">
<title>numpy&#45;&gt;archiver_google_email</title><style>.edge>path:hover{stroke-width:8}</style>
<path fill="none" stroke="black" d="M706.45,-313.7C695.41,-298.77 678.82,-276.53 663.93,-257.49"/>
</g>
<!-- numpy&#45;&gt;archiver_index -->
<g id="edge43" class="edge">
<title>numpy&#45;&gt;archiver_index</title><style>.edge>path:hover{stroke-width:8}</style>
<path fill="none" stroke="black" d="M746.13,-327.26C774.77,-322.03 818.48,-309.1 838.93,-277.71 872.04,-226.89 820.14,-159.25 787.03,-124.1"/>
<polygon fill="#2646d9" stroke="black" points="789.35,-121.46 779.89,-116.7 784.32,-126.32 789.35,-121.46"/>
</g>
<!-- rankbm25 -->
<g id="node24" class="node">
<title>rankbm25</title><style>.edge>path:hover{stroke-width:8}</style>
<polygon fill="#b440c0" stroke="black" points="757.93,-274.49 754.93,-278.49 733.93,-278.49 730.93,-274.49 691.93,-274.49 691.93,-238.49 757.93,-238.49 757.93,-274.49"/>
<text text-anchor="middle" x="724.93" y="-253.99" font-family="Helvetica,sans-Serif" font-size="10.00" fill="#ffffff">rankbm25</text>
</g>
<!-- numpy&#45;&gt;rankbm25 -->
<g id="edge44" class="edge">
<title>numpy&#45;&gt;rankbm25</title><style>.edge>path:hover{stroke-width:8}</style>
<path fill="none" stroke="black" d="M720.36,-313.36C721.05,-304.88 721.9,-294.47 722.68,-284.95"/>
<polygon fill="#2646d9" stroke="black" points="726.19,-284.97 723.52,-274.72 719.22,-284.4 726.19,-284.97"/>
</g>
<!-- oauth2client -->
<g id="node23" class="node">
<title>oauth2client</title><style>.edge>path:hover{stroke-width:8}</style>
<polygon fill="#6510f9" stroke="black" points="1094.43,-421.71 1091.43,-425.71 1070.43,-425.71 1067.43,-421.71 1017.43,-421.71 1017.43,-385.71 1094.43,-385.71 1094.43,-421.71"/>
<text text-anchor="middle" x="1055.93" y="-401.21" font-family="Helvetica,sans-Serif" font-size="10.00" fill="#ffffff">oauth2client</text>
</g>
<!-- oauth2client&#45;&gt;archiver_books -->
<g id="edge45" class="edge">
<title>oauth2client&#45;&gt;archiver_books</title><style>.edge>path:hover{stroke-width:8}</style>
<path fill="none" stroke="black" d="M1059,-385.5C1060.86,-371.01 1061.89,-349.94 1055.93,-332.71"/>
<path fill="none" stroke="black" d="M1055.93,-330.71C1049.97,-313.44 1009.72,-290.96 977.86,-275.49"/>
<polygon fill="#6510f9" stroke="black" points="979.25,-272.27 968.72,-271.12 976.23,-278.59 979.25,-272.27"/>
</g>
<!-- oauth2client&#45;&gt;archiver_google_email -->
<g id="edge46" class="edge">
<title>oauth2client&#45;&gt;archiver_google_email</title><style>.edge>path:hover{stroke-width:8}</style>
<path fill="none" stroke="black" d="M1079.22,-385.45C1095.6,-372.38 1117.16,-353.23 1131.93,-332.71"/>
<path fill="none" stroke="black" d="M1131.93,-330.71C1157.2,-295.61 1144.2,-265.16 1112.93,-235.28 1074.58,-198.62 927.97,-213.75 876.93,-199.28 830.49,-186.11 823.03,-171.22 776.93,-156.85 706.7,-134.96 623.6,-119.24 567.69,-110.09"/>
<polygon fill="#6510f9" stroke="black" points="568,-106.6 557.57,-108.46 566.89,-113.51 568,-106.6"/>
</g>
<!-- oauth2client&#45;&gt;archiver_keep -->
<g id="edge47" class="edge">
<title>oauth2client&#45;&gt;archiver_keep</title><style>.edge>path:hover{stroke-width:8}</style>
<path fill="none" stroke="black" d="M1055.93,-330.71C1050.87,-316.06 1050.63,-298.76 1051.77,-284.65"/>
<polygon fill="#6510f9" stroke="black" points="1055.26,-284.9 1052.85,-274.58 1048.3,-284.15 1055.26,-284.9"/>
</g>
<!-- oauth2client&#45;&gt;archiver_photos -->
<g id="edge48" class="edge">
<title>oauth2client&#45;&gt;archiver_photos</title><style>.edge>path:hover{stroke-width:8}</style>
<path fill="none" stroke="black" d="M1131.93,-330.71C1144.42,-313.37 1160.82,-295.99 1174.61,-282.53"/>
<polygon fill="#6510f9" stroke="black" points="1177.17,-284.92 1181.96,-275.47 1172.32,-279.87 1177.17,-284.92"/>
</g>
<!-- rankbm25&#45;&gt;archiver_google_email -->
<g id="edge49" class="edge">
<title>rankbm25&#45;&gt;archiver_google_email</title><style>.edge>path:hover{stroke-width:8}</style>
<path fill="none" stroke="black" d="M728.89,-238.23C731.69,-222.14 733.58,-197.87 724.93,-179.07"/>
<path fill="none" stroke="black" d="M724.93,-177.07C711.15,-147.11 625.87,-124.39 565.37,-111.79"/>
<polygon fill="#b440c0" stroke="black" points="566.02,-108.35 555.52,-109.79 564.62,-115.21 566.02,-108.35"/>
</g>
<!-- rankbm25&#45;&gt;archiver_index -->
<g id="edge50" class="edge">
<title>rankbm25&#45;&gt;archiver_index</title><style>.edge>path:hover{stroke-width:8}</style>
<path fill="none" stroke="black" d="M724.93,-177.07C716.73,-159.23 727.19,-139.39 739.2,-124.39"/>
<polygon fill="#b440c0" stroke="black" points="742.04,-126.46 745.92,-116.61 736.74,-121.89 742.04,-126.46"/>
</g>
<!-- tqdm -->
<g id="node25" class="node">
<title>tqdm</title><style>.edge>path:hover{stroke-width:8}</style>
<polygon fill="#c2478a" stroke="black" points="829.93,-274.49 826.93,-278.49 805.93,-278.49 802.93,-274.49 775.93,-274.49 775.93,-238.49 829.93,-238.49 829.93,-274.49"/>
<text text-anchor="middle" x="802.93" y="-253.99" font-family="Helvetica,sans-Serif" font-size="10.00" fill="#ffffff">tqdm</text>
</g>
<!-- tqdm&#45;&gt;archiver_google_email -->
<g id="edge51" class="edge">
<title>tqdm&#45;&gt;archiver_google_email</title><style>.edge>path:hover{stroke-width:8}</style>
<path fill="none" stroke="black" d="M797.04,-238.4C790.65,-221.76 779.15,-196.51 762.93,-179.07"/>
<path fill="none" stroke="black" d="M762.93,-177.07C714.23,-124.67 631.57,-107.58 572.73,-102.33"/>
<polygon fill="#c2478a" stroke="black" points="572.65,-98.81 562.41,-101.51 572.1,-105.79 572.65,-98.81"/>
</g>
<!-- tqdm&#45;&gt;archiver_index -->
<g id="edge52" class="edge">
<title>tqdm&#45;&gt;archiver_index</title><style>.edge>path:hover{stroke-width:8}</style>
<path fill="none" stroke="black" d="M762.93,-177.07C750.93,-164.15 751.39,-144.05 754.61,-127.7"/>
<polygon fill="#c2478a" stroke="black" points="758.1,-128.16 757.01,-117.62 751.29,-126.53 758.1,-128.16"/>
</g>
</g>
</svg>
